# xmcd CD database file
#
# Track frame offsets:
#	187
#	26230
#	44345
#	67405
#	90112
#	118855
#	141667
#	160622
#	181192
#
# Disc length: 2730 seconds
#
# Revision: 2
# Processed by: cddbd v1.5.2PL0 Copyright (c) Steve Scherf et al.
# Submitted via: CDex 1.51
#
DISCID=7d0aa809
DTITLE=Aretha Franklin - Aretha
DYEAR=1900
DGENRE=Soul
TTITLE0=Jimmy Lee
TTITLE1=I Knew You Were Waiting (For Me) (Duet with George Michael)
TTITLE2=Do You Still Remember
TTITLE3=Jumpin' Jack Flash
TTITLE4=Rock-A-Lott
TTITLE5=An Angel Cries
TTITLE6=He'll Come Along
TTITLE7=If You Need My Love Tonight (Duet with Larry Graham)
TTITLE8=Look To The Rainbow
EXTD=
EXTT0=
EXTT1=
EXTT2=
EXTT3=
EXTT4=
EXTT5=
EXTT6=
EXTT7=
EXTT8=
PLAYORDER=
